<?xml version="1.0" encoding="utf-8"?>
<!-- Generator: Adobe Illustrator 25.2.3, SVG Export Plug-In . SVG Version: 6.00 Build 0)  -->
<svg version="1.1" id="Layer_1" xmlns="http://www.w3.org/2000/svg" xmlns:xlink="http://www.w3.org/1999/xlink" x="0px" y="0px"
	 width="45px" height="40px" viewBox="0 0 45 40" style="enable-background:new 0 0 45 40;" xml:space="preserve">
<style type="text/css">
	.st0{fill:#DD0A0A;}
</style>
<path class="st0" d="M24,21.1l14.3-10.2c0,0.1,0,0.2,0,0.2c0,1.8,0,3.5,0,5.3c0,2.9,0,5.7,0,8.6c0,0.1-0.1,0.2-0.2,0.3
	c-5.1,3.7-10.3,7.3-15.4,11c-0.1,0-0.1,0.1-0.2,0.1c-0.1,0-0.1-0.1-0.2-0.1C17.2,32.7,12,29,6.9,25.4c-0.1-0.1-0.2-0.2-0.2-0.3
	c0-0.7,0-1.5,0-2.2c0-0.1,0-0.2,0.2-0.3c3.8-2.7,7.5-5.4,11.3-8.1l8.6-6.1c0,0,0.1-0.1,0.1-0.1c0,0,0,0,0,0c0,0,0,0,0,0l-15,0h-0.2
	c0,0.1,0,0.2,0,0.2c0,2.5,0,5,0,7.5c0,0,0,0.1,0,0.1c0,0.1,0,0.2-0.1,0.2c-1.6,1.1-3.1,2.2-4.7,3.4c0,0-0.1,0-0.1,0.1c0,0,0,0,0,0
	c0,0,0,0,0,0c0,0,0-0.1,0-0.1c0-5.3,0-10.6,0-15.9c0,0,0,0,0-0.1h31.5V7L14.2,24.2c2.7,2,5.5,3.9,8.2,5.9c0.2-0.1,12.4-8.8,12.4-8.9
	L24,21.1L24,21.1z"/>
</svg>
